<?xml version="1.0" encoding="UTF-8"?>
<!-- Generator: Adobe Illustrator 28.2.0, SVG Export Plug-In . SVG Version: 6.00 Build 0)  -->
<svg xmlns="http://www.w3.org/2000/svg" xmlns:xlink="http://www.w3.org/1999/xlink" version="1.1" id="Ebene_1" x="0px" y="0px" viewBox="0 0 200 52" style="enable-background:new 0 0 200 52;" xml:space="preserve">
<style type="text/css">
	.st0{fill-rule:evenodd;clip-rule:evenodd;fill:#5799F1;}
	.st1{fill-rule:evenodd;clip-rule:evenodd;fill:#FFFFFF;}
	.st2{fill:#003870;}
	.st3{fill:#FFFFFF;}
</style>
<g>
	<g>
		<path id="XMLID_00000163782321385209262930000010208031974037011335_" class="st0" d="M11.64,18.4h7.2v9.69    c0,2.59-2.12,4.71-4.71,4.71h-2.49c-3.98,0-7.2-3.22-7.2-7.2v0C4.44,21.62,7.66,18.4,11.64,18.4z"></path>
		<path id="XMLID_00000142176504312425265560000001353172866052860800_" class="st1" d="M31.69,18.4c1.1-1.11,1.55-2.57,1.55-4.17    V11.2c0-3.98-3.22-7.2-7.2-7.2h0c-3.98,0-7.2,3.22-7.2,7.2v16.89c0,2.59-2.12,4.71-4.71,4.71h0.54c1.76,0,3.27-0.63,4.52-1.87    L31.69,18.4z"></path>
		<path id="XMLID_00000014609577180021743440000000434925767378694837_" class="st1" d="M40.44,32.8h-7.2V22.69    c0-2.36,1.93-4.29,4.29-4.29h2.91c3.98,0,7.2,3.22,7.2,7.2v0C47.64,29.58,44.42,32.8,40.44,32.8z"></path>
		<path id="XMLID_00000125587446740790833010000014855374629113629350_" class="st0" d="M20.39,32.8c-1.1,1.1-1.55,2.57-1.55,4.17    V40c0,3.98,3.22,7.2,7.2,7.2h0c3.98,0,7.2-3.22,7.2-7.2V23.11c0-2.59,2.12-4.71,4.71-4.71h-0.54c-1.76,0-3.28,0.63-4.52,1.87    L20.39,32.8z"></path>
		<circle class="st2" cx="26.02" cy="40.94" r="2.39"></circle>
		<circle class="st2" cx="41.38" cy="25.6" r="2.39"></circle>
	</g>
	<g>
		<path class="st3" d="M80.5,15.94c0.5,0,0.9-0.14,1.21-0.42c0.3-0.28,0.46-0.65,0.46-1.11c0-0.48-0.15-0.86-0.46-1.16    c-0.3-0.29-0.71-0.44-1.21-0.44H65.77c-0.48,0-0.88,0.16-1.21,0.47S64.08,14,64.08,14.5v22.07c0,0.48,0.16,0.88,0.49,1.21    c0.33,0.33,0.73,0.49,1.21,0.49H80.5c0.5,0,0.9-0.15,1.21-0.44c0.3-0.29,0.46-0.68,0.46-1.16c0-0.46-0.15-0.83-0.46-1.11    c-0.3-0.28-0.71-0.42-1.21-0.42H67.47v-8.15h9.35c0.5,0,0.9-0.15,1.21-0.44c0.3-0.29,0.46-0.67,0.46-1.12s-0.15-0.83-0.46-1.12    c-0.3-0.29-0.71-0.44-1.21-0.44h-9.35v-7.92H80.5z"></path>
		<path class="st3" d="M92.92,35h-0.81c-0.48,0-0.87-0.26-1.17-0.78c-0.31-0.52-0.46-1.18-0.46-1.99v-17.8    c0-0.48-0.15-0.87-0.46-1.17c-0.3-0.3-0.7-0.46-1.17-0.46c-0.48,0-0.87,0.15-1.17,0.46c-0.3,0.3-0.46,0.7-0.46,1.17v17.8    c0,1.17,0.21,2.21,0.62,3.11c0.41,0.9,0.99,1.61,1.73,2.14c0.74,0.52,1.59,0.78,2.54,0.78h0.07c0.65,0,1.18-0.15,1.6-0.46    c0.41-0.3,0.62-0.7,0.62-1.17c0-0.48-0.14-0.87-0.41-1.17C93.71,35.16,93.35,35,92.92,35z"></path>
		<path class="st3" d="M100.94,13.23c-0.59,0-1.09,0.21-1.52,0.64c-0.42,0.42-0.64,0.93-0.64,1.52s0.21,1.09,0.64,1.52    c0.42,0.42,0.93,0.64,1.52,0.64c0.59,0,1.09-0.21,1.52-0.64c0.42-0.42,0.64-0.93,0.64-1.52s-0.21-1.09-0.64-1.52    C102.03,13.44,101.52,13.23,100.94,13.23z"></path>
		<path class="st3" d="M100.94,20.43c-0.48,0-0.87,0.15-1.19,0.46c-0.32,0.3-0.47,0.71-0.47,1.21v14.5c0,0.48,0.16,0.88,0.47,1.19    c0.31,0.31,0.71,0.47,1.19,0.47c0.5,0,0.9-0.16,1.21-0.47c0.3-0.31,0.46-0.71,0.46-1.19V22.1c0-0.5-0.15-0.9-0.46-1.21    C101.84,20.59,101.44,20.43,100.94,20.43z"></path>
		<path class="st3" d="M117.69,35h-1.11c-0.7,0-1.28-0.29-1.76-0.88c-0.48-0.59-0.72-1.31-0.72-2.18v-8.05h2.77    c0.46,0,0.83-0.13,1.11-0.39c0.28-0.26,0.42-0.59,0.42-0.98c0-0.43-0.14-0.78-0.42-1.04c-0.28-0.26-0.65-0.39-1.11-0.39h-2.77    v-4.69c0-0.48-0.15-0.87-0.46-1.17c-0.3-0.3-0.7-0.46-1.17-0.46c-0.48,0-0.87,0.15-1.17,0.46c-0.3,0.3-0.46,0.7-0.46,1.17v4.69    h-1.5c-0.46,0-0.83,0.13-1.11,0.39c-0.28,0.26-0.42,0.61-0.42,1.04c0,0.39,0.14,0.72,0.42,0.98c0.28,0.26,0.65,0.39,1.11,0.39h1.5    v8.05c0,1.2,0.25,2.27,0.75,3.23c0.5,0.96,1.18,1.71,2.05,2.26c0.87,0.55,1.85,0.83,2.93,0.83h0.59c0.56,0,1.03-0.15,1.39-0.46    c0.36-0.3,0.54-0.7,0.54-1.17c0-0.48-0.14-0.87-0.41-1.17C118.41,35.16,118.08,35,117.69,35z"></path>
		<path class="st3" d="M137.36,21.23c-1.18-0.64-2.53-0.96-4.03-0.96c-1.43,0-2.73,0.32-3.88,0.95c-0.63,0.34-1.18,0.76-1.66,1.24    V22.1v-7.63c0-0.5-0.15-0.9-0.46-1.21c-0.3-0.3-0.71-0.46-1.21-0.46c-0.48,0-0.88,0.15-1.19,0.46c-0.31,0.3-0.47,0.71-0.47,1.21    v7.63v8.02v6.52c0,0.48,0.16,0.88,0.47,1.19c0.31,0.32,0.71,0.47,1.19,0.47c0.5,0,0.9-0.16,1.21-0.47    c0.3-0.31,0.46-0.71,0.46-1.19v-6.52v-2.67c0-0.8,0.22-1.52,0.65-2.13c0.43-0.62,1.02-1.11,1.76-1.48    c0.74-0.37,1.56-0.55,2.48-0.55c1,0,1.89,0.19,2.66,0.57c0.77,0.38,1.39,0.96,1.84,1.74c0.46,0.78,0.68,1.79,0.68,3.03v8.02    c0,0.48,0.16,0.88,0.47,1.19c0.31,0.32,0.71,0.47,1.19,0.47c0.48,0,0.87-0.16,1.19-0.47c0.32-0.31,0.47-0.71,0.47-1.19v-8.02    c0-1.8-0.34-3.32-1.03-4.56C139.48,22.81,138.54,21.87,137.36,21.23z"></path>
		<path class="st3" d="M160.68,21.49c-1.35-0.79-2.87-1.19-4.56-1.19s-3.22,0.4-4.58,1.19c-1.36,0.79-2.43,1.87-3.23,3.24    c-0.79,1.37-1.19,2.91-1.19,4.63s0.36,3.25,1.09,4.61c0.73,1.36,1.72,2.43,2.98,3.23c1.26,0.79,2.68,1.19,4.27,1.19    c1.59,0,3.01-0.4,4.27-1.19c0.78-0.49,1.45-1.1,2.02-1.81v1.24c0,0.48,0.16,0.88,0.47,1.19c0.31,0.32,0.71,0.47,1.19,0.47    c0.48,0,0.87-0.16,1.19-0.47c0.31-0.31,0.47-0.71,0.47-1.19v-7.27c0-1.72-0.4-3.26-1.19-4.63    C163.1,23.37,162.03,22.29,160.68,21.49z M161.14,32.48c-0.5,0.92-1.18,1.65-2.05,2.18c-0.87,0.53-1.86,0.8-2.97,0.8    c-1.09,0-2.07-0.27-2.95-0.8c-0.88-0.53-1.58-1.26-2.09-2.18c-0.51-0.92-0.77-1.96-0.77-3.11c0-1.17,0.26-2.22,0.77-3.15    c0.51-0.92,1.21-1.65,2.09-2.18c0.88-0.53,1.86-0.8,2.95-0.8c1.11,0,2.1,0.27,2.97,0.8c0.87,0.53,1.55,1.26,2.05,2.18    c0.5,0.92,0.75,1.97,0.75,3.15C161.89,30.52,161.64,31.55,161.14,32.48z"></path>
		<path class="st3" d="M173.32,13.23c-0.59,0-1.09,0.21-1.52,0.64c-0.42,0.42-0.64,0.93-0.64,1.52s0.21,1.09,0.64,1.52    c0.42,0.42,0.93,0.64,1.52,0.64s1.09-0.21,1.52-0.64c0.42-0.42,0.64-0.93,0.64-1.52s-0.21-1.09-0.64-1.52    C174.42,13.44,173.91,13.23,173.32,13.23z"></path>
		<path class="st3" d="M173.32,20.43c-0.48,0-0.87,0.15-1.19,0.46c-0.32,0.3-0.47,0.71-0.47,1.21v14.5c0,0.48,0.16,0.88,0.47,1.19    c0.31,0.31,0.71,0.47,1.19,0.47c0.5,0,0.9-0.16,1.21-0.47c0.3-0.31,0.46-0.71,0.46-1.19V22.1c0-0.5-0.15-0.9-0.46-1.21    C174.23,20.59,173.82,20.43,173.32,20.43z"></path>
		<path class="st3" d="M194.14,20.88c-0.64-0.42-1.61-0.64-2.92-0.64c-1.3,0-2.5,0.3-3.59,0.91c-0.73,0.41-1.36,0.93-1.89,1.53    v-0.62c0-0.54-0.14-0.95-0.41-1.22c-0.27-0.27-0.68-0.41-1.22-0.41c-0.52,0-0.92,0.14-1.21,0.42c-0.28,0.28-0.42,0.68-0.42,1.21    v14.57c0,0.54,0.14,0.95,0.42,1.22c0.28,0.27,0.68,0.41,1.21,0.41c0.54,0,0.95-0.14,1.22-0.42c0.27-0.28,0.41-0.68,0.41-1.21    v-9.52c0-1,0.32-1.83,0.96-2.48c0.64-0.65,1.52-1.1,2.62-1.34c1.11-0.24,2.36-0.22,3.75,0.07c0.28,0.07,0.54,0.08,0.78,0.03    c0.24-0.04,0.45-0.15,0.64-0.31c0.18-0.16,0.31-0.4,0.37-0.7C195.02,21.8,194.78,21.3,194.14,20.88z"></path>
	</g>
</g>
</svg>
